<?xml version="1.0" standalone="no"?>
<!DOCTYPE svg PUBLIC "-//W3C//DTD SVG 20010904//EN"
 "http://www.w3.org/TR/2001/REC-SVG-20010904/DTD/svg10.dtd">
<svg version="1.0" xmlns="http://www.w3.org/2000/svg"
 width="800.000000pt" height="800.000000pt" viewBox="0 0 800.000000 800.000000"
 preserveAspectRatio="xMidYMid meet">
<metadata>
Created by potrace 1.14, written by Peter Selinger 2001-2017
</metadata>
<g transform="translate(0.000000,800.000000) scale(0.100000,-0.100000)"
fill="#000000" stroke="none">
<path d="M0 4000 l0 -4000 4000 0 4000 0 0 4000 0 4000 -4000 0 -4000 0 0
-4000z m4900 1490 c0 -6 33 -10 80 -10 47 0 80 -4 80 -10 0 -5 23 -10 50 -10
28 0 50 -4 50 -10 0 -5 14 -10 30 -10 17 0 30 -4 30 -10 0 -5 9 -10 20 -10 11
0 20 -4 20 -10 0 -5 9 -10 20 -10 11 0 20 -4 20 -10 0 -5 8 -10 18 -10 10 0
24 -9 32 -20 8 -11 20 -20 27 -20 7 0 87 -74 178 -165 126 -125 165 -171 165
-190 0 -14 5 -25 10 -25 6 0 10 -9 10 -20 0 -11 5 -20 10 -20 6 0 10 -18 10
-40 0 -22 5 -40 10 -40 6 0 10 -50 10 -130 0 -80 -4 -130 -10 -130 -5 0 -10
-18 -10 -40 0 -22 -4 -40 -10 -40 -5 0 -10 -7 -10 -15 0 -17 -124 -145 -141
-145 -6 0 -28 -18 -49 -40 -21 -22 -46 -40 -54 -40 -9 0 -16 -4 -16 -10 0 -5
-13 -10 -30 -10 -16 0 -30 -4 -30 -10 0 -5 -22 -10 -50 -10 -27 0 -50 -4 -50
-10 0 -6 -73 -10 -200 -10 -127 0 -200 4 -200 10 0 6 -9 10 -20 10 -11 0 -20
5 -20 10 0 6 -8 10 -18 10 -10 0 -24 9 -32 20 -8 11 -26 20 -40 20 -14 0 -32
9 -40 20 -8 11 -22 20 -32 20 -10 0 -18 5 -18 10 0 6 -7 10 -15 10 -17 0 -225
204 -225 221 0 6 -13 24 -30 39 -16 15 -30 34 -30 42 0 7 -9 20 -20 28 -11 8
-20 22 -20 32 0 10 -4 18 -10 18 -5 0 -10 9 -10 20 0 11 -4 20 -10 20 -5 0
-10 9 -10 20 0 11 -4 20 -10 20 -6 0 -10 77 -10 210 0 133 4 210 10 210 6 0
10 7 10 15 0 19 184 205 203 205 7 0 19 9 27 20 8 11 22 20 32 20 10 0 18 5
18 10 0 6 57 10 150 10 93 0 150 -4 150 -10z m-1640 -380 c0 -5 14 -10 30 -10
17 0 30 -4 30 -10 0 -5 9 -10 20 -10 11 0 20 -4 20 -10 0 -5 9 -10 20 -10 11
0 20 -4 20 -10 0 -5 8 -10 18 -10 10 0 24 -9 32 -20 8 -11 22 -20 32 -20 10 0
18 -4 18 -10 0 -5 7 -10 15 -10 17 0 285 -264 285 -281 0 -5 23 -32 50 -59 28
-27 50 -56 50 -64 0 -9 5 -16 10 -16 6 0 10 -9 10 -20 0 -11 5 -20 10 -20 6 0
10 -18 10 -40 0 -22 5 -40 10 -40 6 0 10 -63 10 -170 0 -107 -4 -170 -10 -170
-5 0 -10 -9 -10 -20 0 -11 -4 -20 -10 -20 -5 0 -10 -7 -10 -15 0 -18 -265
-285 -283 -285 -7 0 -19 -9 -27 -20 -8 -11 -22 -20 -32 -20 -10 0 -18 -4 -18
-10 0 -5 -9 -10 -20 -10 -11 0 -20 -4 -20 -10 0 -5 -13 -10 -30 -10 -16 0 -30
-4 -30 -10 0 -5 -13 -10 -30 -10 -16 0 -30 -4 -30 -10 0 -5 -22 -10 -50 -10
-27 0 -50 -4 -50 -10 0 -6 -53 -10 -140 -10 -87 0 -140 4 -140 10 0 6 -37 10
-90 10 -53 0 -90 4 -90 10 0 6 -13 10 -28 10 -16 0 -34 8 -42 20 -8 11 -20 20
-27 20 -17 0 -303 286 -303 303 0 7 -9 19 -20 27 -11 8 -20 22 -20 32 0 10 -4
18 -10 18 -5 0 -10 14 -10 30 0 17 -4 30 -10 30 -5 0 -10 9 -10 20 0 11 -4 20
-10 20 -6 0 -10 70 -10 190 0 120 4 190 10 190 6 0 10 27 10 60 0 33 4 60 10
60 6 0 10 7 10 15 0 17 244 265 261 265 6 0 24 14 39 30 15 17 35 30 44 30 9
0 16 5 16 10 0 6 9 10 20 10 11 0 20 5 20 10 0 6 9 10 20 10 11 0 20 5 20 10
0 6 14 10 30 10 17 0 30 5 30 10 0 6 23 10 50 10 28 0 50 5 50 10 0 6 53 10
140 10 87 0 140 -4 140 -10z m2740 -640 c0 -5 7 -10 15 -10 9 0 45 -29 80 -65
l65 -65 0 -60 c0 -60 0 -61 -55 -115 -30 -30 -61 -55 -70 -55 -8 0 -15 -4 -15
-10 0 -5 -22 -10 -50 -10 -27 0 -50 5 -50 10 0 6 -7 10 -15 10 -20 0 -125 105
-125 125 0 8 -4 15 -10 15 -5 0 -10 25 -10 55 0 52 3 58 45 100 24 25 51 45
60 45 8 0 15 5 15 10 0 6 14 10 30 10 17 0 30 5 30 10 0 6 14 10 30 10 17 0
30 -4 30 -10z m-1195 -305 l75 -75 0 -65 c0 -37 -4 -65 -10 -65 -5 0 -10 -7
-10 -15 0 -9 -16 -31 -35 -50 l-34 -35 -106 0 c-63 0 -105 4 -105 10 0 6 -13
10 -30 10 -16 0 -30 5 -30 10 0 6 -7 10 -16 10 -9 0 -25 9 -35 21 -18 21 -18
21 -108 -70 -50 -50 -97 -91 -106 -91 -8 0 -15 -4 -15 -10 0 -5 -25 -10 -55
-10 -54 0 -57 2 -110 55 -38 37 -55 63 -55 80 0 14 -4 25 -10 25 -5 0 -10 20
-10 45 0 51 32 95 70 95 29 0 70 -44 70 -75 0 -14 5 -25 10 -25 6 0 10 -13 10
-30 0 -23 4 -30 20 -30 11 0 20 5 20 10 0 6 7 10 15 10 9 0 36 20 60 45 25 24
45 51 45 60 0 8 5 15 10 15 6 0 10 7 10 15 0 29 47 65 85 65 19 0 35 -4 35
-10 0 -5 8 -10 18 -10 10 0 24 -9 32 -20 8 -11 22 -20 32 -20 10 0 18 -4 18
-10 0 -5 14 -10 30 -10 17 0 30 -4 30 -10 0 -6 27 -10 60 -10 58 0 60 1 60 26
0 17 -16 41 -50 74 -56 54 -61 79 -27 115 37 40 60 32 142 -50z m-2225 -555
c0 -5 11 -10 25 -10 29 0 115 -79 115 -105 0 -8 5 -15 10 -15 6 0 10 -27 10
-60 0 -33 -4 -60 -10 -60 -5 0 -10 -7 -10 -15 0 -9 -20 -36 -45 -60 l-44 -45
-96 0 c-57 0 -95 4 -95 10 0 6 -7 10 -15 10 -20 0 -85 65 -85 85 0 8 -4 15
-10 15 -5 0 -10 23 -10 50 0 28 5 50 10 50 6 0 10 7 10 15 0 20 105 125 125
125 8 0 15 5 15 10 0 6 23 10 50 10 28 0 50 -4 50 -10z m3446 -124 c8 -8 14
-26 14 -40 0 -14 5 -26 10 -26 6 0 10 -13 10 -30 0 -16 5 -30 10 -30 6 0 10
-18 10 -40 0 -22 5 -40 10 -40 6 0 10 -40 10 -100 0 -60 4 -100 10 -100 6 0
10 -30 10 -70 0 -40 -4 -70 -10 -70 -6 0 -10 -30 -10 -70 0 -40 -4 -70 -10
-70 -5 0 -10 -22 -10 -50 0 -27 -4 -50 -10 -50 -5 0 -10 -22 -10 -50 0 -27 -4
-50 -10 -50 -5 0 -10 -9 -10 -20 0 -11 -4 -20 -10 -20 -5 0 -10 -13 -10 -28 0
-16 -8 -34 -20 -42 -11 -8 -20 -22 -20 -32 0 -10 -4 -18 -10 -18 -5 0 -10 -9
-10 -20 0 -11 -4 -20 -10 -20 -5 0 -10 -8 -10 -18 0 -10 -9 -24 -20 -32 -11
-8 -20 -20 -20 -27 0 -19 -126 -143 -145 -143 -8 0 -15 -4 -15 -10 0 -5 -7
-10 -16 -10 -9 0 -29 -13 -44 -30 -15 -16 -35 -30 -44 -30 -9 0 -16 -4 -16
-10 0 -5 -9 -10 -20 -10 -11 0 -20 -4 -20 -10 0 -5 -9 -10 -20 -10 -11 0 -20
-4 -20 -10 0 -5 -9 -10 -20 -10 -11 0 -20 -4 -20 -10 0 -5 -9 -10 -20 -10 -11
0 -20 -4 -20 -10 0 -5 -18 -10 -40 -10 -22 0 -40 -4 -40 -10 0 -7 -393 -10
-1160 -10 -767 0 -1160 3 -1160 10 0 6 -22 10 -50 10 -27 0 -50 5 -50 10 0 6
-7 10 -16 10 -9 0 -29 14 -44 30 -15 17 -34 30 -42 30 -7 0 -20 9 -28 20 -8
11 -20 20 -27 20 -17 0 -163 146 -163 163 0 7 -9 19 -20 27 -11 8 -20 22 -20
32 0 10 -4 18 -10 18 -5 0 -10 8 -10 18 0 10 -9 24 -20 32 -12 8 -20 26 -20
42 0 15 -4 28 -10 28 -5 0 -10 9 -10 20 0 11 -4 20 -10 20 -5 0 -10 18 -10 40
0 33 3 40 20 40 11 0 20 5 20 10 0 6 8 10 18 10 10 0 24 9 32 20 8 11 22 20
32 20 10 0 18 5 18 10 0 6 8 10 18 10 10 0 24 9 32 20 8 11 22 20 32 20 10 0
18 5 18 10 0 6 14 10 30 10 17 0 30 5 30 10 0 6 9 10 20 10 11 0 20 5 20 10 0
6 9 10 20 10 11 0 20 5 20 10 0 6 9 10 20 10 11 0 20 5 20 10 0 6 9 10 20 10
11 0 20 5 20 10 0 6 14 10 30 10 17 0 30 5 30 10 0 6 9 10 20 10 11 0 20 5 20
10 0 6 14 10 30 10 17 0 30 5 30 10 0 6 9 10 20 10 11 0 20 5 20 10 0 6 14 10
30 10 17 0 30 5 30 10 0 6 14 10 30 10 17 0 30 5 30 10 0 6 9 10 20 10 11 0
20 5 20 10 0 6 14 10 30 10 17 0 30 5 30 10 0 6 9 10 20 10 11 0 20 5 20 10 0
6 14 10 30 10 17 0 30 5 30 10 0 6 9 10 20 10 11 0 20 5 20 10 0 6 14 10 30
10 17 0 30 -4 30 -10 0 -5 -4 -10 -10 -10 -5 0 -10 -13 -10 -30 0 -16 -4 -30
-10 -30 -5 0 -10 -9 -10 -20 0 -11 -4 -20 -10 -20 -5 0 -10 -13 -10 -30 0 -16
-4 -30 -10 -30 -5 0 -10 -13 -10 -30 0 -16 -4 -30 -10 -30 -5 0 -10 -9 -10
-20 0 -11 -4 -20 -10 -20 -5 0 -10 -13 -10 -30 0 -16 -4 -30 -10 -30 -5 0 -10
-9 -10 -20 0 -11 -4 -20 -10 -20 -5 0 -10 -13 -10 -30 0 -16 -4 -30 -10 -30
-5 0 -10 -13 -10 -30 0 -16 -4 -30 -10 -30 -5 0 -10 -9 -10 -20 0 -11 -4 -20
-10 -20 -5 0 -10 -13 -10 -30 0 -16 -4 -30 -10 -30 -5 0 -10 -13 -10 -30 0
-16 -4 -30 -10 -30 -5 0 -10 -9 -10 -20 0 -11 -4 -20 -10 -20 -21 0 -10 -70
15 -95 24 -25 75 -35 75 -15 0 6 9 10 20 10 11 0 20 5 20 10 0 6 8 10 18 10
10 0 24 9 32 20 8 11 22 20 32 20 10 0 18 5 18 10 0 6 9 10 20 10 11 0 20 5
20 10 0 6 8 10 18 10 10 0 24 9 32 20 8 11 22 20 32 20 10 0 18 5 18 10 0 6 8
10 18 10 10 0 24 9 32 20 8 11 22 20 32 20 10 0 18 5 18 10 0 6 8 10 18 10 10
0 24 9 32 20 8 11 22 20 32 20 10 0 18 5 18 10 0 6 8 10 18 10 10 0 24 9 32
20 8 11 22 20 32 20 10 0 18 5 18 10 0 6 8 10 18 10 10 0 24 9 32 20 8 11 22
20 32 20 10 0 18 5 18 10 0 6 8 10 18 10 10 0 24 9 32 20 8 11 22 20 32 20 10
0 18 5 18 10 0 6 8 10 18 10 10 0 24 9 32 20 8 11 22 20 32 20 10 0 18 5 18
10 0 6 9 10 20 10 11 0 20 5 20 10 0 20 33 9 60 -20 15 -16 33 -30 40 -30 7 0
25 -13 40 -30 15 -16 33 -30 40 -30 7 0 25 -13 40 -30 15 -16 33 -30 40 -30 7
0 25 -13 40 -30 15 -16 33 -30 40 -30 7 0 25 -13 40 -30 16 -17 38 -30 52 -30
13 0 30 -9 38 -20 8 -11 21 -20 30 -20 9 0 22 -9 30 -20 8 -11 21 -20 30 -20
9 0 22 -9 30 -20 8 -11 22 -20 32 -20 10 0 18 -4 18 -10 0 -5 8 -10 18 -10 10
0 24 -9 32 -20 8 -11 22 -20 32 -20 10 0 18 -4 18 -10 0 -5 9 -10 20 -10 11 0
20 -4 20 -10 0 -5 14 -10 30 -10 17 0 30 -4 30 -10 0 -6 28 -10 65 -10 62 0
68 2 100 35 27 26 35 43 35 70 0 19 -4 35 -10 35 -5 0 -10 14 -10 30 0 17 -4
30 -10 30 -5 0 -10 9 -10 20 0 11 -4 20 -10 20 -5 0 -10 9 -10 20 0 11 -4 20
-10 20 -5 0 -10 9 -10 20 0 11 -4 20 -10 20 -5 0 -10 9 -10 20 0 11 -4 20 -10
20 -5 0 -10 9 -10 20 0 11 -4 20 -10 20 -5 0 -10 9 -10 20 0 11 -4 20 -10 20
-5 0 -10 8 -10 18 0 10 -9 24 -20 32 -11 8 -20 22 -20 32 0 10 -4 18 -10 18
-5 0 -10 13 -10 28 0 16 -8 34 -20 42 -11 8 -20 21 -20 30 0 9 -9 22 -20 30
-11 8 -20 22 -20 32 0 10 -4 18 -10 18 -5 0 -10 9 -10 20 0 11 -4 20 -10 20
-5 0 -10 8 -10 18 0 10 -9 24 -20 32 -11 8 -20 21 -20 29 0 7 -9 22 -21 32
-19 16 -20 20 -6 34 9 8 26 15 39 15 13 0 30 9 38 20 8 11 21 20 30 20 9 0 22
9 30 20 8 11 26 20 40 20 14 0 32 9 40 20 8 11 21 20 30 20 9 0 22 9 30 20 8
11 22 20 32 20 10 0 18 5 18 10 0 6 8 10 18 10 10 0 24 9 32 20 8 11 21 20 30
20 9 0 22 9 30 20 8 11 21 20 30 20 8 0 26 14 40 30 l25 29 263 1 c215 0 266
-3 278 -14z"/>
<path d="M4680 5230 c0 -5 -8 -10 -18 -10 -10 0 -24 -9 -32 -20 -8 -11 -22
-20 -32 -20 -11 0 -18 -7 -18 -20 0 -11 -4 -20 -10 -20 -6 0 -10 -50 -10 -130
0 -80 4 -130 10 -130 6 0 10 -9 10 -20 0 -11 5 -20 10 -20 6 0 10 -9 10 -20 0
-11 5 -20 10 -20 6 0 10 -8 10 -18 0 -10 9 -24 20 -32 11 -8 20 -21 20 -28 0
-8 14 -27 30 -42 17 -15 30 -33 30 -40 0 -16 26 -40 44 -40 9 0 16 -4 16 -10
0 -5 8 -10 18 -10 10 0 24 -9 32 -20 8 -11 26 -20 40 -20 14 0 32 -9 40 -20 8
-11 22 -20 32 -20 10 0 18 -4 18 -10 0 -5 9 -10 20 -10 11 0 20 -4 20 -10 0
-6 47 -10 120 -10 73 0 120 4 120 10 0 6 23 10 50 10 28 0 50 5 50 10 0 6 14
10 30 10 17 0 30 5 30 10 0 6 7 10 15 10 9 0 31 16 50 35 27 26 35 43 35 70 0
19 5 35 10 35 6 0 10 23 10 50 0 28 -4 50 -10 50 -5 0 -10 18 -10 40 0 22 -4
40 -10 40 -5 0 -10 9 -10 20 0 11 -4 20 -10 20 -5 0 -10 11 -10 25 0 18 -21
47 -75 100 -41 41 -81 75 -88 75 -7 0 -19 9 -27 20 -8 11 -22 20 -32 20 -10 0
-18 5 -18 10 0 6 -9 10 -20 10 -11 0 -20 5 -20 10 0 6 -9 10 -20 10 -11 0 -20
5 -20 10 0 6 -13 10 -30 10 -16 0 -30 5 -30 10 0 6 -22 10 -50 10 -27 0 -50 5
-50 10 0 6 -22 10 -50 10 -27 0 -50 5 -50 10 0 6 -40 10 -100 10 -60 0 -100
-4 -100 -10z"/>
<path d="M3000 4850 c0 -5 -9 -10 -20 -10 -11 0 -20 -4 -20 -10 0 -5 -13 -10
-30 -10 -16 0 -30 -4 -30 -10 0 -5 -9 -10 -20 -10 -11 0 -20 -4 -20 -10 0 -5
-9 -10 -20 -10 -11 0 -20 -4 -20 -10 0 -5 -7 -10 -16 -10 -9 0 -29 -13 -44
-30 -15 -16 -33 -30 -39 -30 -17 0 -81 -67 -81 -85 0 -8 -4 -15 -10 -15 -6 0
-10 -27 -10 -60 0 -33 -4 -60 -10 -60 -6 0 -10 -43 -10 -110 0 -67 4 -110 10
-110 6 0 10 -9 10 -20 0 -11 5 -20 10 -20 6 0 10 -13 10 -30 0 -16 5 -30 10
-30 6 0 10 -8 10 -18 0 -10 9 -24 20 -32 11 -8 20 -20 20 -27 0 -8 25 -38 55
-68 30 -30 60 -55 68 -55 7 0 19 -9 27 -20 8 -12 26 -20 42 -20 15 0 28 -4 28
-10 0 -6 37 -10 90 -10 53 0 90 -4 90 -10 0 -6 27 -10 60 -10 33 0 60 4 60 10
0 6 23 10 50 10 28 0 50 5 50 10 0 6 14 10 30 10 17 0 30 5 30 10 0 6 14 10
30 10 17 0 30 5 30 10 0 6 9 10 20 10 11 0 20 5 20 10 0 6 8 10 18 10 10 0 24
9 32 20 8 11 20 20 27 20 19 0 103 86 103 105 0 8 5 15 10 15 6 0 10 9 10 20
0 11 5 20 10 20 6 0 10 37 10 90 0 53 -4 90 -10 90 -5 0 -10 18 -10 40 0 22
-4 40 -10 40 -5 0 -10 9 -10 20 0 11 -4 20 -10 20 -5 0 -10 7 -10 16 0 8 -22
37 -50 64 -27 27 -50 54 -50 60 0 16 -87 100 -105 100 -8 0 -15 5 -15 10 0 6
-8 10 -18 10 -10 0 -24 9 -32 20 -8 11 -22 20 -32 20 -10 0 -18 5 -18 10 0 6
-9 10 -20 10 -11 0 -20 5 -20 10 0 6 -9 10 -20 10 -11 0 -20 5 -20 10 0 6 -13
10 -30 10 -16 0 -30 5 -30 10 0 6 -37 10 -90 10 -53 0 -90 -4 -90 -10z"/>
</g>
</svg>
